# This file uses centimeters as units for non-parametric coordinates.

mtllib avioncito2.mtl
g default
v -0.497895 1.306840 0.586118
v 0.378926 1.398369 0.586116
v -0.497895 1.306840 0.273294
v 0.378926 1.398369 0.273293
v -0.039336 1.423575 -0.500000
v -0.306448 1.630001 0.500000
v 0.156806 1.630001 0.500000
v -0.063228 1.084154 0.500000
vt 0.000000 0.000000
vt 1.000000 0.000000
vt 0.000000 1.000000
vt 1.000000 1.000000
vt 0.460664 1.000000
vt 0.193552 0.000000
vt 0.656806 0.000000
vt 0.436772 0.000000
vn -0.115089 0.993348 0.003756
vn -0.268446 0.959074 -0.090077
vn 0.594231 0.776172 -0.210825
vn 0.594231 0.776172 -0.210825
vn -0.746618 0.616931 -0.248915
vn 0.049636 0.992463 -0.112045
vn -0.746618 0.616931 -0.248915
vn 0.020365 0.946595 0.321780
s 1
g pPlane1
usemtl initialShadingGroup
f 5/5/1 7/7/2 2/2/3 4/4/4
f 1/1/5 6/6/6 5/5/1 3/3/7
f 5/5/1 8/8/8 7/7/2
f 5/5/1 6/6/6 8/8/8
